<svg width="25" height="25" viewBox="0 0 25 25" fill="none" xmlns="http://www.w3.org/2000/svg">
<rect x="0.226135" y="0.486694" width="24" height="24" rx="4" fill="white"/>
<path fill-rule="evenodd" clip-rule="evenodd" d="M6.22614 12.4867C6.22614 10.0899 6.22614 8.89155 6.79726 8.0284C7.0523 7.64295 7.38239 7.31286 7.76784 7.05782C8.631 6.48669 9.82938 6.48669 12.2261 6.48669C14.6229 6.48669 15.8213 6.48669 16.6844 7.05782C17.0699 7.31286 17.4 7.64295 17.655 8.0284C18.2261 8.89155 18.2261 10.0899 18.2261 12.4867C18.2261 14.8835 18.2261 16.0818 17.655 16.945C17.4 17.3304 17.0699 17.6605 16.6844 17.9156C15.8213 18.4867 14.6229 18.4867 12.2261 18.4867C9.82938 18.4867 8.631 18.4867 7.76784 17.9156C7.38239 17.6605 7.0523 17.3304 6.79726 16.945C6.22614 16.0818 6.22614 14.8835 6.22614 12.4867ZM15.3323 12.4868C15.3323 14.2024 13.9416 15.5931 12.226 15.5931C10.5105 15.5931 9.11976 14.2024 9.11976 12.4868C9.11976 10.7713 10.5105 9.38057 12.226 9.38057C13.9416 9.38057 15.3323 10.7713 15.3323 12.4868ZM12.226 14.5422C13.3612 14.5422 14.2814 13.622 14.2814 12.4868C14.2814 11.3517 13.3612 10.4315 12.226 10.4315C11.0909 10.4315 10.1707 11.3517 10.1707 12.4868C10.1707 13.622 11.0909 14.5422 12.226 14.5422ZM15.455 9.95439C15.8581 9.95439 16.1849 9.62761 16.1849 9.22451C16.1849 8.82141 15.8581 8.49463 15.455 8.49463C15.0519 8.49463 14.7251 8.82141 14.7251 9.22451C14.7251 9.62761 15.0519 9.95439 15.455 9.95439Z" fill="#A37C45"/>
</svg>
