<svg width="25" height="25" viewBox="0 0 25 25" fill="none" xmlns="http://www.w3.org/2000/svg">
<rect x="0.226074" y="0.486694" width="24" height="24" rx="4" fill="#A37C45"/>
<path fill-rule="evenodd" clip-rule="evenodd" d="M6.22607 12.4867C6.22607 10.0899 6.22607 8.89155 6.7972 8.0284C7.05224 7.64295 7.38233 7.31286 7.76778 7.05782C8.63093 6.48669 9.82931 6.48669 12.2261 6.48669C14.6228 6.48669 15.8212 6.48669 16.6844 7.05782C17.0698 7.31286 17.3999 7.64295 17.6549 8.0284C18.2261 8.89155 18.2261 10.0899 18.2261 12.4867C18.2261 14.8835 18.2261 16.0818 17.6549 16.945C17.3999 17.3304 17.0698 17.6605 16.6844 17.9156C15.8212 18.4867 14.6228 18.4867 12.2261 18.4867C9.82931 18.4867 8.63093 18.4867 7.76778 17.9156C7.38233 17.6605 7.05224 17.3304 6.7972 16.945C6.22607 16.0818 6.22607 14.8835 6.22607 12.4867ZM15.3322 12.4868C15.3322 14.2024 13.9415 15.5931 12.226 15.5931C10.5104 15.5931 9.11969 14.2024 9.11969 12.4868C9.11969 10.7713 10.5104 9.38057 12.226 9.38057C13.9415 9.38057 15.3322 10.7713 15.3322 12.4868ZM12.226 14.5422C13.3611 14.5422 14.2813 13.622 14.2813 12.4868C14.2813 11.3517 13.3611 10.4315 12.226 10.4315C11.0908 10.4315 10.1706 11.3517 10.1706 12.4868C10.1706 13.622 11.0908 14.5422 12.226 14.5422ZM15.4549 9.95439C15.858 9.95439 16.1848 9.62761 16.1848 9.22451C16.1848 8.82141 15.858 8.49463 15.4549 8.49463C15.0518 8.49463 14.725 8.82141 14.725 9.22451C14.725 9.62761 15.0518 9.95439 15.4549 9.95439Z" fill="white"/>
</svg>
