<svg width="18" height="18" viewBox="0 0 18 18" fill="none" xmlns="http://www.w3.org/2000/svg">
<path fill-rule="evenodd" clip-rule="evenodd" d="M9.41913 17.1356C10.5354 17.1356 11.6407 16.9158 12.6719 16.4886C13.7032 16.0614 14.6402 15.4353 15.4295 14.646C16.2188 13.8567 16.8449 12.9197 17.2721 11.8884C17.6993 10.8572 17.9191 9.75186 17.9191 8.63562C17.9191 7.51938 17.6993 6.41408 17.2721 5.38281C16.8449 4.35154 16.2188 3.41451 15.4295 2.62521C14.6402 1.83591 13.7032 1.20981 12.6719 0.782644C11.6407 0.355479 10.5354 0.13562 9.41913 0.13562C7.16479 0.13562 5.00278 1.03115 3.40872 2.62521C1.81466 4.21927 0.919128 6.38128 0.919128 8.63562C0.919128 10.89 1.81466 13.052 3.40872 14.646C5.00278 16.2401 7.16479 17.1356 9.41913 17.1356ZM9.20002 12.0734L13.9222 6.40673L12.4716 5.19784L8.41046 10.0702L6.30907 7.9679L4.97363 9.30334L7.80696 12.1367L8.53796 12.8677L9.20002 12.0734Z" fill="#A37C45"/>
</svg>
