<svg width="25" height="25" viewBox="0 0 25 25" fill="none" xmlns="http://www.w3.org/2000/svg">
<rect x="0.226074" y="0.486694" width="24" height="24" rx="4" fill="#A37C45"/>
<path d="M12.5184 17.14L9.81029 17.0894C8.93345 17.0717 8.05444 17.1069 7.1948 16.9242C5.88709 16.6512 5.79445 15.3126 5.69751 14.1898C5.56393 12.6112 5.61564 11.004 5.86772 9.43862C6.01002 8.56027 6.57004 8.03616 7.43609 7.97913C10.3597 7.77214 13.3027 7.79667 16.2198 7.89324C16.5278 7.90209 16.838 7.95047 17.1418 8.00555C18.6414 8.27416 18.6779 9.79109 18.7751 11.0681C18.8721 12.3582 18.8311 13.655 18.6459 14.9363C18.4972 15.9973 18.2128 16.887 17.0125 16.9729C15.5087 17.0852 14.0394 17.1756 12.5313 17.1468C12.5314 17.14 12.5227 17.14 12.5184 17.14ZM10.9263 14.454C12.0596 13.7891 13.1712 13.1352 14.298 12.4747C13.1626 11.8098 12.0531 11.1559 10.9263 10.4954V14.454Z" fill="white"/>
</svg>
