<svg width="25" height="25" viewBox="0 0 25 25" fill="none" xmlns="http://www.w3.org/2000/svg">
<rect x="0.226135" y="0.486694" width="24" height="24" rx="4" fill="white"/>
<path d="M12.5185 17.14L9.81041 17.0894C8.93358 17.0717 8.05456 17.1069 7.19492 16.9242C5.88721 16.6512 5.79457 15.3126 5.69763 14.1898C5.56405 12.6112 5.61577 11.004 5.86784 9.43862C6.01014 8.56027 6.57016 8.03616 7.43622 7.97913C10.3598 7.77214 13.3028 7.79667 16.2199 7.89324C16.528 7.90209 16.8382 7.95047 17.1419 8.00555C18.6415 8.27416 18.6781 9.79109 18.7753 11.0681C18.8722 12.3582 18.8313 13.655 18.646 14.9363C18.4973 15.9973 18.2129 16.887 17.0127 16.9729C15.5088 17.0852 14.0395 17.1756 12.5314 17.1468C12.5315 17.14 12.5228 17.14 12.5185 17.14ZM10.9264 14.454C12.0597 13.7891 13.1713 13.1352 14.2981 12.4747C13.1627 11.8098 12.0532 11.1559 10.9264 10.4954V14.454Z" fill="#A37C45"/>
</svg>
